<svg width="100" height="100" viewBox="0 0 100 100" fill="none" xmlns="http://www.w3.org/2000/svg">
<circle cx="50" cy="50" r="49.5" fill="white" stroke="black"/>
<g clip-path="url(#clip0)">
<path d="M67.1934 41.9436L67.1934 37.7304H62.9802L62.9802 48.2486L37.7306 48.2486L37.7306 37.7304L33.5174 37.7304L33.5174 41.9436L29.3042 41.9436V48.2486L25.0911 48.2486L25.0911 52.4618L29.3042 52.4618L29.3042 58.7668H33.5174L33.5174 62.98L37.7306 62.98L37.7306 52.4618L62.9802 52.4618V62.98L67.1934 62.98L67.1934 58.7668L71.4065 58.7668L71.4066 52.4618L75.6197 52.4618V48.2486H71.4065L71.4066 41.9436L67.1934 41.9436Z" fill="black"/>
</g>
<defs>
<clipPath id="clip0">
<rect width="50" height="50" fill="white" transform="translate(15 50.3552) rotate(-45)"/>
</clipPath>
</defs>
</svg>
