<svg width="100" height="100" viewBox="0 0 100 100" fill="none" xmlns="http://www.w3.org/2000/svg">
<circle cx="50" cy="50" r="49.5" fill="white" stroke="black"/>
<g clip-path="url(#clip0)">
<circle cx="50" cy="50" r="49.5" fill="white" stroke="black"/>
<path d="M60.4167 27.1041L39.5833 27.0833C37.2917 27.0833 35.4375 28.9583 35.4375 31.2499V68.7499C35.4375 71.0416 37.2917 72.9166 39.5833 72.9166H60.4167C62.7083 72.9166 64.5833 71.0416 64.5833 68.7499V31.2499C64.5833 28.9583 62.7083 27.1041 60.4167 27.1041ZM60.4167 64.5833H39.5833V35.4166H60.4167V64.5833ZM51.6667 52.5416V56.1874L58.3333 49.9583L51.6667 43.7499V47.2916C45.1875 48.1874 42.6042 52.6249 41.6667 57.0833C43.9792 53.9583 47.0417 52.5416 51.6667 52.5416Z" fill="black"/>
</g>
<defs>
<clipPath id="clip0">
<rect width="50" height="50" fill="white" transform="translate(25 25)"/>
</clipPath>
</defs>
</svg>
