<svg width="100" height="100" viewBox="0 0 100 100" fill="none" xmlns="http://www.w3.org/2000/svg">
<circle cx="50" cy="50" r="49.5" fill="white" stroke="#2E2B28"/>
<path d="M60.2078 40.4375H54.406C53.8231 39.0238 52.2963 38 50.4919 38C48.6875 38 47.1607 39.0238 46.5778 40.4375H40.776C39.2492 40.4375 38 41.5344 38 42.875V59.9375C38 61.2781 39.2492 62.375 40.776 62.375H60.2078C61.7346 62.375 62.9838 61.2781 62.9838 59.9375V42.875C62.9838 41.5344 61.7346 40.4375 60.2078 40.4375ZM50.4919 40.4375C51.2553 40.4375 51.8799 40.9859 51.8799 41.6562C51.8799 42.3266 51.2553 42.875 50.4919 42.875C49.7285 42.875 49.1039 42.3266 49.1039 41.6562C49.1039 40.9859 49.7285 40.4375 50.4919 40.4375ZM53.2679 57.5H43.5519V55.0625H53.2679V57.5ZM57.4318 52.625H43.5519V50.1875H57.4318V52.625ZM57.4318 47.75H43.5519V45.3125H57.4318V47.75Z" fill="black"/>
</svg>
