<svg width="25" height="25" viewBox="0 0 25 25" fill="none" xmlns="http://www.w3.org/2000/svg">
<path d="M22.2078 2.4375H16.406C15.8231 1.02375 14.2963 0 12.4919 0C10.6875 0 9.16071 1.02375 8.57776 2.4375H2.77597C1.24919 2.4375 0 3.53437 0 4.875V21.9375C0 23.2781 1.24919 24.375 2.77597 24.375H22.2078C23.7346 24.375 24.9838 23.2781 24.9838 21.9375V4.875C24.9838 3.53437 23.7346 2.4375 22.2078 2.4375ZM12.4919 2.4375C13.2553 2.4375 13.8799 2.98594 13.8799 3.65625C13.8799 4.32656 13.2553 4.875 12.4919 4.875C11.7285 4.875 11.1039 4.32656 11.1039 3.65625C11.1039 2.98594 11.7285 2.4375 12.4919 2.4375ZM15.2679 19.5H5.55195V17.0625H15.2679V19.5ZM19.4318 14.625H5.55195V12.1875H19.4318V14.625ZM19.4318 9.75H5.55195V7.3125H19.4318V9.75Z" fill="black"/>
</svg>
