<svg width="75" height="77" viewBox="0 0 75 77" fill="none" xmlns="http://www.w3.org/2000/svg">
<g filter="url(#filter0_d)">
<path d="M6.25 37.5C6.25 20.25 20.25 6.25 37.5 6.25C54.75 6.25 68.75 20.25 68.75 37.5C68.75 54.75 54.75 68.75 37.5 68.75C20.25 68.75 6.25 54.75 6.25 37.5ZM37.5 56.25C47.8438 56.25 56.25 47.8438 56.25 37.5C56.25 27.1562 47.8438 18.75 37.5 18.75C27.1563 18.75 18.75 27.1562 18.75 37.5C18.75 47.8438 27.1563 56.25 37.5 56.25Z" fill="#2E3163"/>
<path d="M39.0234 26.9102H43.125V40.7822H45.0439V44.5762H43.125V49H39.1113V44.5762H29.707V40.7822L39.0234 26.9102ZM39.1113 40.7822V33.5605L34.1895 40.7822H39.1113Z" fill="#2E3163"/>
</g>
<defs>
<filter id="filter0_d" x="-4" y="0" width="83" height="83" filterUnits="userSpaceOnUse" color-interpolation-filters="sRGB">
<feFlood flood-opacity="0" result="BackgroundImageFix"/>
<feColorMatrix in="SourceAlpha" type="matrix" values="0 0 0 0 0 0 0 0 0 0 0 0 0 0 0 0 0 0 127 0"/>
<feOffset dy="4"/>
<feGaussianBlur stdDeviation="2"/>
<feColorMatrix type="matrix" values="0 0 0 0 0 0 0 0 0 0 0 0 0 0 0 0 0 0 0.25 0"/>
<feBlend mode="normal" in2="BackgroundImageFix" result="effect1_dropShadow"/>
<feBlend mode="normal" in="SourceGraphic" in2="effect1_dropShadow" result="shape"/>
</filter>
</defs>
</svg>
