<svg width="75" height="77" viewBox="0 0 75 77" fill="none" xmlns="http://www.w3.org/2000/svg">
<g filter="url(#filter0_d)">
<path d="M6.25 37.5C6.25 20.25 20.25 6.25 37.5 6.25C54.75 6.25 68.75 20.25 68.75 37.5C68.75 54.75 54.75 68.75 37.5 68.75C20.25 68.75 6.25 54.75 6.25 37.5ZM37.5 56.25C47.8438 56.25 56.25 47.8438 56.25 37.5C56.25 27.1562 47.8438 18.75 37.5 18.75C27.1563 18.75 18.75 27.1562 18.75 37.5C18.75 47.8438 27.1563 56.25 37.5 56.25Z" fill="#1089A4"/>
<path d="M34.79 32.7695H30.8496C31.0547 31.1777 31.626 29.8984 32.5635 28.9316C33.8721 27.584 35.5176 26.9102 37.5 26.9102C39.2676 26.9102 40.7471 27.4717 41.9385 28.5947C43.1396 29.7178 43.7402 31.0508 43.7402 32.5938C43.7402 33.5508 43.4766 34.4248 42.9492 35.2158C42.4316 36.0068 41.6748 36.6465 40.6787 37.1348C41.9873 37.5254 43.0078 38.209 43.7402 39.1855C44.4824 40.1523 44.8535 41.2949 44.8535 42.6133C44.8535 44.5469 44.1406 46.1875 42.7148 47.5352C41.2891 48.873 39.4727 49.542 37.2656 49.542C35.1758 49.542 33.4717 48.9121 32.1533 47.6523C30.835 46.3828 30.1123 44.6592 29.9854 42.4814H34.043C34.2188 43.5947 34.6045 44.4248 35.2002 44.9717C35.8057 45.5088 36.5674 45.7773 37.4854 45.7773C38.4424 45.7773 39.2334 45.4697 39.8584 44.8545C40.4932 44.2393 40.8105 43.4873 40.8105 42.5986C40.8105 41.6221 40.3857 40.7969 39.5361 40.123C38.6865 39.4492 37.4609 39.1025 35.8594 39.083V35.5674C36.8457 35.4893 37.5781 35.3379 38.0566 35.1133C38.5449 34.8789 38.9209 34.5615 39.1846 34.1611C39.458 33.7607 39.5947 33.3359 39.5947 32.8867C39.5947 32.3008 39.3896 31.8174 38.9795 31.4365C38.5693 31.0459 38.0322 30.8506 37.3682 30.8506C36.7822 30.8506 36.25 31.0312 35.7715 31.3926C35.293 31.7441 34.9658 32.2031 34.79 32.7695Z" fill="#1089A4"/>
</g>
<defs>
<filter id="filter0_d" x="-4" y="0" width="83" height="83" filterUnits="userSpaceOnUse" color-interpolation-filters="sRGB">
<feFlood flood-opacity="0" result="BackgroundImageFix"/>
<feColorMatrix in="SourceAlpha" type="matrix" values="0 0 0 0 0 0 0 0 0 0 0 0 0 0 0 0 0 0 127 0"/>
<feOffset dy="4"/>
<feGaussianBlur stdDeviation="2"/>
<feColorMatrix type="matrix" values="0 0 0 0 0 0 0 0 0 0 0 0 0 0 0 0 0 0 0.25 0"/>
<feBlend mode="normal" in2="BackgroundImageFix" result="effect1_dropShadow"/>
<feBlend mode="normal" in="SourceGraphic" in2="effect1_dropShadow" result="shape"/>
</filter>
</defs>
</svg>
