<svg width="75" height="77" viewBox="0 0 75 77" fill="none" xmlns="http://www.w3.org/2000/svg">
<g filter="url(#filter0_d)">
<path d="M6.25 37.5C6.25 20.25 20.25 6.25 37.5 6.25C54.75 6.25 68.75 20.25 68.75 37.5C68.75 54.75 54.75 68.75 37.5 68.75C20.25 68.75 6.25 54.75 6.25 37.5ZM37.5 56.25C47.8438 56.25 56.25 47.8438 56.25 37.5C56.25 27.1562 47.8438 18.75 37.5 18.75C27.1563 18.75 18.75 27.1562 18.75 37.5C18.75 47.8438 27.1563 56.25 37.5 56.25Z" fill="#1089A4"/>
<path d="M34.3213 34.3955H30.3223C30.4297 32.0713 31.1572 30.2451 32.5049 28.917C33.8623 27.5791 35.6006 26.9102 37.7197 26.9102C39.0283 26.9102 40.1807 27.1885 41.1768 27.7451C42.1826 28.292 42.9834 29.0879 43.5791 30.1328C44.1846 31.168 44.4873 32.2227 44.4873 33.2969C44.4873 34.5762 44.1211 35.9531 43.3887 37.4277C42.666 38.9023 41.3379 40.6455 39.4043 42.6572L36.9873 45.2061H44.6631V49H29.7363V47.0371L36.4014 40.2402C38.0127 38.6094 39.082 37.3008 39.6094 36.3145C40.1465 35.3184 40.415 34.4199 40.415 33.6191C40.415 32.7891 40.1367 32.1055 39.5801 31.5684C39.0332 31.0215 38.3252 30.748 37.4561 30.748C36.5771 30.748 35.8447 31.0752 35.2588 31.7295C34.6729 32.3838 34.3604 33.2725 34.3213 34.3955Z" fill="#1089A4"/>
</g>
<defs>
<filter id="filter0_d" x="-4" y="0" width="83" height="83" filterUnits="userSpaceOnUse" color-interpolation-filters="sRGB">
<feFlood flood-opacity="0" result="BackgroundImageFix"/>
<feColorMatrix in="SourceAlpha" type="matrix" values="0 0 0 0 0 0 0 0 0 0 0 0 0 0 0 0 0 0 127 0"/>
<feOffset dy="4"/>
<feGaussianBlur stdDeviation="2"/>
<feColorMatrix type="matrix" values="0 0 0 0 0 0 0 0 0 0 0 0 0 0 0 0 0 0 0.25 0"/>
<feBlend mode="normal" in2="BackgroundImageFix" result="effect1_dropShadow"/>
<feBlend mode="normal" in="SourceGraphic" in2="effect1_dropShadow" result="shape"/>
</filter>
</defs>
</svg>
