<svg width="22" height="20" viewBox="0 0 22 20" fill="none" xmlns="http://www.w3.org/2000/svg">
<path d="M11 6.66667C12.0083 6.66667 12.8333 5.91667 12.8333 5C12.8333 4.08333 12.0083 3.33333 11 3.33333C9.99166 3.33333 9.16666 4.08333 9.16666 5C9.16666 5.91667 9.99166 6.66667 11 6.66667ZM11 8.33333C9.99166 8.33333 9.16666 9.08333 9.16666 10C9.16666 10.9167 9.99166 11.6667 11 11.6667C12.0083 11.6667 12.8333 10.9167 12.8333 10C12.8333 9.08333 12.0083 8.33333 11 8.33333ZM11 13.3333C9.99166 13.3333 9.16666 14.0833 9.16666 15C9.16666 15.9167 9.99166 16.6667 11 16.6667C12.0083 16.6667 12.8333 15.9167 12.8333 15C12.8333 14.0833 12.0083 13.3333 11 13.3333Z" fill="white"/>
</svg>
